<svg xmlns="http://www.w3.org/2000/svg" xmlns:xlink="http://www.w3.org/1999/xlink" contentStyleType="text/css" height="62px" preserveAspectRatio="none" style="width:363px;height:62px;background:#FFFFFF;" version="1.1" viewBox="0 0 363 62" width="363px" zoomAndPan="magnify"><defs/><g><!--class Person--><g id="elem_Person"><rect codeLine="4" fill="#F1F1F1" height="48" id="Person" rx="2.5" ry="2.5" style="stroke:#181818;stroke-width:0.5;" width="79.5439" x="154.01" y="7"/><ellipse cx="169.01" cy="23" fill="#ADD1B2" rx="11" ry="11" style="stroke:#181818;stroke-width:1;"/><path d="M173.1194,29 L165.4006,29 L165.4006,16.6094 L173.1194,16.6094 L173.1194,18.7656 L167.8538,18.7656 L167.8538,21.4375 L172.6194,21.4375 L172.6194,23.5938 L167.8538,23.5938 L167.8538,26.8438 L173.1194,26.8438 L173.1194,29 Z " fill="#000000"/><text fill="#000000" font-family="sans-serif" font-size="14" lengthAdjust="spacing" textLength="47.5439" x="183.01" y="27.8467">Person</text><line style="stroke:#181818;stroke-width:0.5;" x1="155.01" x2="232.5539" y1="39" y2="39"/><line style="stroke:#181818;stroke-width:0.5;" x1="155.01" x2="232.5539" y1="47" y2="47"/></g><!--class Position--><g id="elem_Position"><rect codeLine="5" fill="#F1F1F1" height="48" id="Position" rx="2.5" ry="2.5" style="stroke:#181818;stroke-width:0.5;" width="87.0088" x="7" y="7"/><ellipse cx="22" cy="23" fill="#ADD1B2" rx="11" ry="11" style="stroke:#181818;stroke-width:1;"/><path d="M26.1094,29 L18.3906,29 L18.3906,16.6094 L26.1094,16.6094 L26.1094,18.7656 L20.8438,18.7656 L20.8438,21.4375 L25.6094,21.4375 L25.6094,23.5938 L20.8438,23.5938 L20.8438,26.8438 L26.1094,26.8438 L26.1094,29 Z " fill="#000000"/><text fill="#000000" font-family="sans-serif" font-size="14" lengthAdjust="spacing" textLength="55.0088" x="36" y="27.8467">Position</text><line style="stroke:#181818;stroke-width:0.5;" x1="8" x2="93.0088" y1="39" y2="39"/><line style="stroke:#181818;stroke-width:0.5;" x1="8" x2="93.0088" y1="47" y2="47"/></g><!--class Role--><g id="elem_Role"><rect codeLine="6" fill="#F1F1F1" height="48" id="Role" rx="2.5" ry="2.5" style="stroke:#181818;stroke-width:0.5;" width="62.7959" x="293.55" y="7"/><ellipse cx="308.55" cy="23" fill="#ADD1B2" rx="11" ry="11" style="stroke:#181818;stroke-width:1;"/><path d="M312.6594,29 L304.9406,29 L304.9406,16.6094 L312.6594,16.6094 L312.6594,18.7656 L307.3938,18.7656 L307.3938,21.4375 L312.1594,21.4375 L312.1594,23.5938 L307.3938,23.5938 L307.3938,26.8438 L312.6594,26.8438 L312.6594,29 Z " fill="#000000"/><text fill="#000000" font-family="sans-serif" font-size="14" lengthAdjust="spacing" textLength="30.7959" x="322.55" y="27.8467">Role</text><line style="stroke:#181818;stroke-width:0.5;" x1="294.55" x2="355.3459" y1="39" y2="39"/><line style="stroke:#181818;stroke-width:0.5;" x1="294.55" x2="355.3459" y1="47" y2="47"/></g><!--link Position to Person--><g id="link_Position_Person"><path codeLine="8" d="M102.27,31 C121.2,31 117.2,31 135.7,31 " fill="none" id="Position-Person" style="stroke:#181818;stroke-width:1;"/><line style="stroke:#181818;stroke-width:1;" x1="98.27" x2="98.27" y1="35" y2="27"/><line style="stroke:#181818;stroke-width:1;" x1="101.27" x2="101.27" y1="35" y2="27"/><line style="stroke:#181818;stroke-width:1;" x1="102.27" x2="94.27" y1="31" y2="31"/><line style="stroke:#181818;stroke-width:1;" x1="145.7" x2="153.7" y1="31" y2="25"/><line style="stroke:#181818;stroke-width:1;" x1="145.7" x2="153.7" y1="31" y2="37"/><line style="stroke:#181818;stroke-width:1;" x1="145.7" x2="153.7" y1="31" y2="31"/><ellipse cx="139.7" cy="31" fill="none" rx="4" ry="4" style="stroke:#181818;stroke-width:1;"/></g><!--link Person to Role--><g id="link_Person_Role"><path codeLine="9" d="M251.85,31 C270.99,31 257.56,31 275.44,31 " fill="none" id="Person-Role" style="stroke:#181818;stroke-width:1;"/><line style="stroke:#181818;stroke-width:1;" x1="241.85" x2="233.85" y1="31" y2="37"/><line style="stroke:#181818;stroke-width:1;" x1="241.85" x2="233.85" y1="31" y2="25"/><line style="stroke:#181818;stroke-width:1;" x1="241.85" x2="233.85" y1="31" y2="31"/><ellipse cx="247.85" cy="31" fill="none" rx="4" ry="4" style="stroke:#181818;stroke-width:1;"/><line style="stroke:#181818;stroke-width:1;" x1="285.44" x2="293.44" y1="31" y2="25"/><line style="stroke:#181818;stroke-width:1;" x1="285.44" x2="293.44" y1="31" y2="37"/><line style="stroke:#181818;stroke-width:1;" x1="285.44" x2="293.44" y1="31" y2="31"/><ellipse cx="279.44" cy="31" fill="none" rx="4" ry="4" style="stroke:#181818;stroke-width:1;"/></g><!--SRC=[HSh93O0m34JHkwjm0-a5qG42Goo2ZHnpG8JUGIpAyS-yFBEidNKB9XRoVILKywYGQ7HqHUCfEWvir3kh090u-uuDMRxpBytyt5-tcWZWDNXgs48f5TKzwF7O2m00]--></g></svg>